<svg class="main-svg" xmlns="http://www.w3.org/2000/svg" xmlns:xlink="http://www.w3.org/1999/xlink" width="700" height="850" style="" viewBox="0 0 700 850"><rect x="0" y="0" width="700" height="850" style="fill: rgb(0, 0, 0); fill-opacity: 0;"/><defs id="defs-633fea"><g class="clips"><clipPath id="clip633feaxyplot" class="plotclip"><rect width="555" height="725"/></clipPath><clipPath class="axesclip" id="clip633feax"><rect x="121" y="0" width="555" height="850"/></clipPath><clipPath class="axesclip" id="clip633feay"><rect x="0" y="40" width="700" height="725"/></clipPath><clipPath class="axesclip" id="clip633feaxy"><rect x="121" y="40" width="555" height="725"/></clipPath></g><g class="gradients"/><g class="patterns"/></defs><g class="bglayer"><rect class="bg" x="121" y="40" width="555" height="725" style="fill: rgb(0, 0, 0); fill-opacity: 0; stroke-width: 0;"/></g><g class="layer-below"><g class="imagelayer"/><g class="shapelayer"/></g><g class="cartesianlayer"><g class="subplot xy"><g class="layer-subplot"><g class="shapelayer"/><g class="imagelayer"/></g><g class="minor-gridlayer"><g class="x"/><g class="y"/></g><g class="gridlayer"><g class="x"/><g class="y"><path class="ygrid crisp" transform="translate(0,723.75)" d="M121,0h555" style="stroke: rgb(29, 39, 42); stroke-opacity: 0.12; stroke-width: 1px;"/><path class="ygrid crisp" transform="translate(0,701.59)" d="M121,0h555" style="stroke: rgb(29, 39, 42); stroke-opacity: 0.12; stroke-width: 1px;"/><path class="ygrid crisp" transform="translate(0,679.44)" d="M121,0h555" style="stroke: rgb(29, 39, 42); stroke-opacity: 0.12; stroke-width: 1px;"/><path class="ygrid crisp" transform="translate(0,657.28)" d="M121,0h555" style="stroke: rgb(29, 39, 42); stroke-opacity: 0.12; stroke-width: 1px;"/><path class="ygrid crisp" transform="translate(0,635.13)" d="M121,0h555" style="stroke: rgb(29, 39, 42); stroke-opacity: 0.12; stroke-width: 1px;"/><path class="ygrid crisp" transform="translate(0,612.97)" d="M121,0h555" style="stroke: rgb(29, 39, 42); stroke-opacity: 0.12; stroke-width: 1px;"/><path class="ygrid crisp" transform="translate(0,590.82)" d="M121,0h555" style="stroke: rgb(29, 39, 42); stroke-opacity: 0.12; stroke-width: 1px;"/><path class="ygrid crisp" transform="translate(0,568.66)" d="M121,0h555" style="stroke: rgb(29, 39, 42); stroke-opacity: 0.12; stroke-width: 1px;"/><path class="ygrid crisp" transform="translate(0,546.51)" d="M121,0h555" style="stroke: rgb(29, 39, 42); stroke-opacity: 0.12; stroke-width: 1px;"/><path class="ygrid crisp" transform="translate(0,524.35)" d="M121,0h555" style="stroke: rgb(29, 39, 42); stroke-opacity: 0.12; stroke-width: 1px;"/><path class="ygrid crisp" transform="translate(0,502.2)" d="M121,0h555" style="stroke: rgb(29, 39, 42); stroke-opacity: 0.12; stroke-width: 1px;"/><path class="ygrid crisp" transform="translate(0,480.04)" d="M121,0h555" style="stroke: rgb(29, 39, 42); stroke-opacity: 0.12; stroke-width: 1px;"/><path class="ygrid crisp" transform="translate(0,457.89)" d="M121,0h555" style="stroke: rgb(29, 39, 42); stroke-opacity: 0.12; stroke-width: 1px;"/><path class="ygrid crisp" transform="translate(0,435.73)" d="M121,0h555" style="stroke: rgb(29, 39, 42); stroke-opacity: 0.12; stroke-width: 1px;"/><path class="ygrid crisp" transform="translate(0,413.58)" d="M121,0h555" style="stroke: rgb(29, 39, 42); stroke-opacity: 0.12; stroke-width: 1px;"/><path class="ygrid crisp" transform="translate(0,391.42)" d="M121,0h555" style="stroke: rgb(29, 39, 42); stroke-opacity: 0.12; stroke-width: 1px;"/><path class="ygrid crisp" transform="translate(0,369.27)" d="M121,0h555" style="stroke: rgb(29, 39, 42); stroke-opacity: 0.12; stroke-width: 1px;"/><path class="ygrid crisp" transform="translate(0,347.11)" d="M121,0h555" style="stroke: rgb(29, 39, 42); stroke-opacity: 0.12; stroke-width: 1px;"/><path class="ygrid crisp" transform="translate(0,324.96)" d="M121,0h555" style="stroke: rgb(29, 39, 42); stroke-opacity: 0.12; stroke-width: 1px;"/><path class="ygrid crisp" transform="translate(0,302.8)" d="M121,0h555" style="stroke: rgb(29, 39, 42); stroke-opacity: 0.12; stroke-width: 1px;"/><path class="ygrid crisp" transform="translate(0,280.65)" d="M121,0h555" style="stroke: rgb(29, 39, 42); stroke-opacity: 0.12; stroke-width: 1px;"/><path class="ygrid crisp" transform="translate(0,258.49)" d="M121,0h555" style="stroke: rgb(29, 39, 42); stroke-opacity: 0.12; stroke-width: 1px;"/><path class="ygrid crisp" transform="translate(0,236.34)" d="M121,0h555" style="stroke: rgb(29, 39, 42); stroke-opacity: 0.12; stroke-width: 1px;"/><path class="ygrid crisp" transform="translate(0,214.18)" d="M121,0h555" style="stroke: rgb(29, 39, 42); stroke-opacity: 0.12; stroke-width: 1px;"/><path class="ygrid crisp" transform="translate(0,192.03)" d="M121,0h555" style="stroke: rgb(29, 39, 42); stroke-opacity: 0.12; stroke-width: 1px;"/><path class="ygrid crisp" transform="translate(0,169.87)" d="M121,0h555" style="stroke: rgb(29, 39, 42); stroke-opacity: 0.12; stroke-width: 1px;"/><path class="ygrid crisp" transform="translate(0,147.72)" d="M121,0h555" style="stroke: rgb(29, 39, 42); stroke-opacity: 0.12; stroke-width: 1px;"/><path class="ygrid crisp" transform="translate(0,125.56)" d="M121,0h555" style="stroke: rgb(29, 39, 42); stroke-opacity: 0.12; stroke-width: 1px;"/><path class="ygrid crisp" transform="translate(0,103.41)" d="M121,0h555" style="stroke: rgb(29, 39, 42); stroke-opacity: 0.12; stroke-width: 1px;"/><path class="ygrid crisp" transform="translate(0,81.25)" d="M121,0h555" style="stroke: rgb(29, 39, 42); stroke-opacity: 0.12; stroke-width: 1px;"/></g></g><g class="zerolinelayer"/><g class="layer-between"><g class="shapelayer"/><g class="imagelayer"/></g><path class="xlines-below"/><path class="ylines-below"/><g class="overlines-below"/><g class="xaxislayer-below"/><g class="yaxislayer-below"/><g class="overaxes-below"/><g class="overplot"><g class="xy" transform="translate(121,40)" clip-path="url(#clip633feaxyplot)"><g class="scatterlayer mlayer"><g class="trace scatter trace731d28" style="stroke-miterlimit: 2; opacity: 1;"><g class="fills"/><g class="errorbars"><g class="errorbar" style="opacity: 1;"><path class="xerror" d="M192.13,679.75v8m0,-4H27.75m0,-4v8" style="vector-effect: none; stroke-width: 2px; stroke: rgb(185, 96, 91); stroke-opacity: 1;"/></g><g class="errorbar" style="opacity: 1;"><path class="xerror" d="M201.78,657.59v8m0,-4H50.96m0,-4v8" style="vector-effect: none; stroke-width: 2px; stroke: rgb(185, 96, 91); stroke-opacity: 1;"/></g><g class="errorbar" style="opacity: 1;"><path class="xerror" d="M244.54,635.44v8m0,-4H61.64m0,-4v8" style="vector-effect: none; stroke-width: 2px; stroke: rgb(185, 96, 91); stroke-opacity: 1;"/></g><g class="errorbar" style="opacity: 1;"><path class="xerror" d="M237.44,613.28v8m0,-4H63.9m0,-4v8" style="vector-effect: none; stroke-width: 2px; stroke: rgb(185, 96, 91); stroke-opacity: 1;"/></g><g class="errorbar" style="opacity: 1;"><path class="xerror" d="M266.6,591.13v8m0,-4H81.72m0,-4v8" style="vector-effect: none; stroke-width: 2px; stroke: rgb(185, 96, 91); stroke-opacity: 1;"/></g><g class="errorbar" style="opacity: 1;"><path class="xerror" d="M244.33,568.97v8m0,-4H103.29m0,-4v8" style="vector-effect: none; stroke-width: 2px; stroke: rgb(185, 96, 91); stroke-opacity: 1;"/></g><g class="errorbar" style="opacity: 1;"><path class="xerror" d="M255.53,546.82v8m0,-4H93.11m0,-4v8" style="vector-effect: none; stroke-width: 2px; stroke: rgb(185, 96, 91); stroke-opacity: 1;"/></g><g class="errorbar" style="opacity: 1;"><path class="xerror" d="M266.29,524.66v8m0,-4H95.4m0,-4v8" style="vector-effect: none; stroke-width: 2px; stroke: rgb(185, 96, 91); stroke-opacity: 1;"/></g><g class="errorbar" style="opacity: 1;"><path class="xerror" d="M266.74,502.51v8m0,-4H97.74m0,-4v8" style="vector-effect: none; stroke-width: 2px; stroke: rgb(185, 96, 91); stroke-opacity: 1;"/></g><g class="errorbar" style="opacity: 1;"><path class="xerror" d="M272.2,480.35v8m0,-4H114.93m0,-4v8" style="vector-effect: none; stroke-width: 2px; stroke: rgb(185, 96, 91); stroke-opacity: 1;"/></g><g class="errorbar" style="opacity: 1;"><path class="xerror" d="M276.8,458.2v8m0,-4H123.89m0,-4v8" style="vector-effect: none; stroke-width: 2px; stroke: rgb(185, 96, 91); stroke-opacity: 1;"/></g><g class="errorbar" style="opacity: 1;"><path class="xerror" d="M300.03,436.04v8m0,-4H125.38m0,-4v8" style="vector-effect: none; stroke-width: 2px; stroke: rgb(185, 96, 91); stroke-opacity: 1;"/></g><g class="errorbar" style="opacity: 1;"><path class="xerror" d="M292.63,413.89v8m0,-4H130.69m0,-4v8" style="vector-effect: none; stroke-width: 2px; stroke: rgb(185, 96, 91); stroke-opacity: 1;"/></g></g><g class="lines"/><g class="points"><path class="point" transform="translate(112.9,683.75)" d="M4,0A4,4 0 1,1 0,-4A4,4 0 0,1 4,0Z" style="opacity: 1; stroke-width: 0px; fill: rgb(185, 96, 91); fill-opacity: 1;"/><path class="point" transform="translate(129.61,661.59)" d="M4,0A4,4 0 1,1 0,-4A4,4 0 0,1 4,0Z" style="opacity: 1; stroke-width: 0px; fill: rgb(185, 96, 91); fill-opacity: 1;"/><path class="point" transform="translate(153.1,639.44)" d="M4,0A4,4 0 1,1 0,-4A4,4 0 0,1 4,0Z" style="opacity: 1; stroke-width: 0px; fill: rgb(185, 96, 91); fill-opacity: 1;"/><path class="point" transform="translate(153.79,617.28)" d="M4,0A4,4 0 1,1 0,-4A4,4 0 0,1 4,0Z" style="opacity: 1; stroke-width: 0px; fill: rgb(185, 96, 91); fill-opacity: 1;"/><path class="point" transform="translate(172.9,595.13)" d="M4,0A4,4 0 1,1 0,-4A4,4 0 0,1 4,0Z" style="opacity: 1; stroke-width: 0px; fill: rgb(185, 96, 91); fill-opacity: 1;"/><path class="point" transform="translate(174.73,572.97)" d="M4,0A4,4 0 1,1 0,-4A4,4 0 0,1 4,0Z" style="opacity: 1; stroke-width: 0px; fill: rgb(185, 96, 91); fill-opacity: 1;"/><path class="point" transform="translate(175.44,550.82)" d="M4,0A4,4 0 1,1 0,-4A4,4 0 0,1 4,0Z" style="opacity: 1; stroke-width: 0px; fill: rgb(185, 96, 91); fill-opacity: 1;"/><path class="point" transform="translate(181.2,528.66)" d="M4,0A4,4 0 1,1 0,-4A4,4 0 0,1 4,0Z" style="opacity: 1; stroke-width: 0px; fill: rgb(185, 96, 91); fill-opacity: 1;"/><path class="point" transform="translate(186.69,506.51)" d="M4,0A4,4 0 1,1 0,-4A4,4 0 0,1 4,0Z" style="opacity: 1; stroke-width: 0px; fill: rgb(185, 96, 91); fill-opacity: 1;"/><path class="point" transform="translate(192.72,484.35)" d="M4,0A4,4 0 1,1 0,-4A4,4 0 0,1 4,0Z" style="opacity: 1; stroke-width: 0px; fill: rgb(185, 96, 91); fill-opacity: 1;"/><path class="point" transform="translate(203.93,462.2)" d="M4,0A4,4 0 1,1 0,-4A4,4 0 0,1 4,0Z" style="opacity: 1; stroke-width: 0px; fill: rgb(185, 96, 91); fill-opacity: 1;"/><path class="point" transform="translate(209.35,440.04)" d="M4,0A4,4 0 1,1 0,-4A4,4 0 0,1 4,0Z" style="opacity: 1; stroke-width: 0px; fill: rgb(185, 96, 91); fill-opacity: 1;"/><path class="point" transform="translate(215.62,417.89)" d="M4,0A4,4 0 1,1 0,-4A4,4 0 0,1 4,0Z" style="opacity: 1; stroke-width: 0px; fill: rgb(185, 96, 91); fill-opacity: 1;"/></g><g class="text"/></g><g class="trace scatter trace74f746" style="stroke-miterlimit: 2; opacity: 1;"><g class="fills"/><g class="errorbars"><g class="errorbar" style="opacity: 1;"><path class="xerror" d="M526.07,59.41v8m0,-4H358.91m0,-4v8" style="vector-effect: none; stroke-width: 2px; stroke: rgb(46, 110, 78); stroke-opacity: 1;"/></g><g class="errorbar" style="opacity: 1;"><path class="xerror" d="M527.25,37.25v8m0,-4H365.63m0,-4v8" style="vector-effect: none; stroke-width: 2px; stroke: rgb(46, 110, 78); stroke-opacity: 1;"/></g></g><g class="lines"/><g class="points"><path class="point" transform="translate(437.65,63.41)" d="M4,0A4,4 0 1,1 0,-4A4,4 0 0,1 4,0Z" style="opacity: 1; stroke-width: 0px; fill: rgb(46, 110, 78); fill-opacity: 1;"/><path class="point" transform="translate(442.03,41.25)" d="M4,0A4,4 0 1,1 0,-4A4,4 0 0,1 4,0Z" style="opacity: 1; stroke-width: 0px; fill: rgb(46, 110, 78); fill-opacity: 1;"/></g><g class="text"/></g><g class="trace scatter trace98b14b" style="stroke-miterlimit: 2; opacity: 1;"><g class="fills"/><g class="errorbars"><g class="errorbar" style="opacity: 1;"><path class="xerror" d="M321.18,391.73v8m0,-4H148.97m0,-4v8" style="vector-effect: none; stroke-width: 2px; stroke: rgb(152, 132, 83); stroke-opacity: 1;"/></g><g class="errorbar" style="opacity: 1;"><path class="xerror" d="M327.53,369.58v8m0,-4H159.87m0,-4v8" style="vector-effect: none; stroke-width: 2px; stroke: rgb(152, 132, 83); stroke-opacity: 1;"/></g><g class="errorbar" style="opacity: 1;"><path class="xerror" d="M332.45,347.42v8m0,-4H167.62m0,-4v8" style="vector-effect: none; stroke-width: 2px; stroke: rgb(152, 132, 83); stroke-opacity: 1;"/></g><g class="errorbar" style="opacity: 1;"><path class="xerror" d="M356.72,325.27v8m0,-4H198.75m0,-4v8" style="vector-effect: none; stroke-width: 2px; stroke: rgb(152, 132, 83); stroke-opacity: 1;"/></g><g class="errorbar" style="opacity: 1;"><path class="xerror" d="M368.21,303.11v8m0,-4H204.28m0,-4v8" style="vector-effect: none; stroke-width: 2px; stroke: rgb(152, 132, 83); stroke-opacity: 1;"/></g><g class="errorbar" style="opacity: 1;"><path class="xerror" d="M378,280.96v8m0,-4H210.76m0,-4v8" style="vector-effect: none; stroke-width: 2px; stroke: rgb(152, 132, 83); stroke-opacity: 1;"/></g><g class="errorbar" style="opacity: 1;"><path class="xerror" d="M370.12,258.8v8m0,-4H215.08m0,-4v8" style="vector-effect: none; stroke-width: 2px; stroke: rgb(152, 132, 83); stroke-opacity: 1;"/></g><g class="errorbar" style="opacity: 1;"><path class="xerror" d="M416.83,236.65v8m0,-4H250.31m0,-4v8" style="vector-effect: none; stroke-width: 2px; stroke: rgb(152, 132, 83); stroke-opacity: 1;"/></g><g class="errorbar" style="opacity: 1;"><path class="xerror" d="M415.83,214.49v8m0,-4H258.07m0,-4v8" style="vector-effect: none; stroke-width: 2px; stroke: rgb(152, 132, 83); stroke-opacity: 1;"/></g><g class="errorbar" style="opacity: 1;"><path class="xerror" d="M422.4,192.34v8m0,-4H260.09m0,-4v8" style="vector-effect: none; stroke-width: 2px; stroke: rgb(152, 132, 83); stroke-opacity: 1;"/></g><g class="errorbar" style="opacity: 1;"><path class="xerror" d="M466.6,170.18v8m0,-4H282.76m0,-4v8" style="vector-effect: none; stroke-width: 2px; stroke: rgb(152, 132, 83); stroke-opacity: 1;"/></g><g class="errorbar" style="opacity: 1;"><path class="xerror" d="M467.31,148.03v8m0,-4H288.32m0,-4v8" style="vector-effect: none; stroke-width: 2px; stroke: rgb(152, 132, 83); stroke-opacity: 1;"/></g><g class="errorbar" style="opacity: 1;"><path class="xerror" d="M456.08,125.87v8m0,-4H301.19m0,-4v8" style="vector-effect: none; stroke-width: 2px; stroke: rgb(152, 132, 83); stroke-opacity: 1;"/></g><g class="errorbar" style="opacity: 1;"><path class="xerror" d="M450.92,103.72v8m0,-4H311.51m0,-4v8" style="vector-effect: none; stroke-width: 2px; stroke: rgb(152, 132, 83); stroke-opacity: 1;"/></g><g class="errorbar" style="opacity: 1;"><path class="xerror" d="M454.84,81.56v8m0,-4H309.01m0,-4v8" style="vector-effect: none; stroke-width: 2px; stroke: rgb(152, 132, 83); stroke-opacity: 1;"/></g></g><g class="lines"/><g class="points"><path class="point" transform="translate(236.83,395.73)" d="M4,0A4,4 0 1,1 0,-4A4,4 0 0,1 4,0Z" style="opacity: 1; stroke-width: 0px; fill: rgb(152, 132, 83); fill-opacity: 1;"/><path class="point" transform="translate(246.79,373.58)" d="M4,0A4,4 0 1,1 0,-4A4,4 0 0,1 4,0Z" style="opacity: 1; stroke-width: 0px; fill: rgb(152, 132, 83); fill-opacity: 1;"/><path class="point" transform="translate(252.01,351.42)" d="M4,0A4,4 0 1,1 0,-4A4,4 0 0,1 4,0Z" style="opacity: 1; stroke-width: 0px; fill: rgb(152, 132, 83); fill-opacity: 1;"/><path class="point" transform="translate(275.27,329.27)" d="M4,0A4,4 0 1,1 0,-4A4,4 0 0,1 4,0Z" style="opacity: 1; stroke-width: 0px; fill: rgb(152, 132, 83); fill-opacity: 1;"/><path class="point" transform="translate(287,307.11)" d="M4,0A4,4 0 1,1 0,-4A4,4 0 0,1 4,0Z" style="opacity: 1; stroke-width: 0px; fill: rgb(152, 132, 83); fill-opacity: 1;"/><path class="point" transform="translate(292.91,284.96)" d="M4,0A4,4 0 1,1 0,-4A4,4 0 0,1 4,0Z" style="opacity: 1; stroke-width: 0px; fill: rgb(152, 132, 83); fill-opacity: 1;"/><path class="point" transform="translate(294.22,262.8)" d="M4,0A4,4 0 1,1 0,-4A4,4 0 0,1 4,0Z" style="opacity: 1; stroke-width: 0px; fill: rgb(152, 132, 83); fill-opacity: 1;"/><path class="point" transform="translate(331.72,240.65)" d="M4,0A4,4 0 1,1 0,-4A4,4 0 0,1 4,0Z" style="opacity: 1; stroke-width: 0px; fill: rgb(152, 132, 83); fill-opacity: 1;"/><path class="point" transform="translate(336.13,218.49)" d="M4,0A4,4 0 1,1 0,-4A4,4 0 0,1 4,0Z" style="opacity: 1; stroke-width: 0px; fill: rgb(152, 132, 83); fill-opacity: 1;"/><path class="point" transform="translate(340.38,196.34)" d="M4,0A4,4 0 1,1 0,-4A4,4 0 0,1 4,0Z" style="opacity: 1; stroke-width: 0px; fill: rgb(152, 132, 83); fill-opacity: 1;"/><path class="point" transform="translate(373.96,174.18)" d="M4,0A4,4 0 1,1 0,-4A4,4 0 0,1 4,0Z" style="opacity: 1; stroke-width: 0px; fill: rgb(152, 132, 83); fill-opacity: 1;"/><path class="point" transform="translate(376,152.03)" d="M4,0A4,4 0 1,1 0,-4A4,4 0 0,1 4,0Z" style="opacity: 1; stroke-width: 0px; fill: rgb(152, 132, 83); fill-opacity: 1;"/><path class="point" transform="translate(376.6,129.87)" d="M4,0A4,4 0 1,1 0,-4A4,4 0 0,1 4,0Z" style="opacity: 1; stroke-width: 0px; fill: rgb(152, 132, 83); fill-opacity: 1;"/><path class="point" transform="translate(377.86,107.72)" d="M4,0A4,4 0 1,1 0,-4A4,4 0 0,1 4,0Z" style="opacity: 1; stroke-width: 0px; fill: rgb(152, 132, 83); fill-opacity: 1;"/><path class="point" transform="translate(379.38,85.56)" d="M4,0A4,4 0 1,1 0,-4A4,4 0 0,1 4,0Z" style="opacity: 1; stroke-width: 0px; fill: rgb(152, 132, 83); fill-opacity: 1;"/></g><g class="text"/></g></g></g></g><path class="xlines-above crisp" d="M0,0" style="fill: none;"/><path class="ylines-above crisp" d="M0,0" style="fill: none;"/><g class="overlines-above"/><g class="xaxislayer-above"><g class="xtick"><text text-anchor="middle" x="0" y="779" transform="translate(220.74,0)" style="font-family: 'Suisse Intl', -apple-system, BlinkMacSystemFont, Arial, sans-serif; font-size: 13px; fill: rgb(29, 39, 42); fill-opacity: 1; white-space: pre; opacity: 1;">−0.1</text></g><g class="xtick"><text text-anchor="middle" x="0" y="779" style="font-family: 'Suisse Intl', -apple-system, BlinkMacSystemFont, Arial, sans-serif; font-size: 13px; fill: rgb(29, 39, 42); fill-opacity: 1; white-space: pre; opacity: 1;" transform="translate(330.88,0)">−0.05</text></g><g class="xtick"><text text-anchor="middle" x="0" y="779" style="font-family: 'Suisse Intl', -apple-system, BlinkMacSystemFont, Arial, sans-serif; font-size: 13px; fill: rgb(29, 39, 42); fill-opacity: 1; white-space: pre; opacity: 1;" transform="translate(441.03,0)">0</text></g><g class="xtick"><text text-anchor="middle" x="0" y="779" style="font-family: 'Suisse Intl', -apple-system, BlinkMacSystemFont, Arial, sans-serif; font-size: 13px; fill: rgb(29, 39, 42); fill-opacity: 1; white-space: pre; opacity: 1;" transform="translate(551.1700000000001,0)">0.05</text></g><g class="xtick"><text text-anchor="middle" x="0" y="779" style="font-family: 'Suisse Intl', -apple-system, BlinkMacSystemFont, Arial, sans-serif; font-size: 13px; fill: rgb(29, 39, 42); fill-opacity: 1; white-space: pre; opacity: 1;" transform="translate(661.31,0)">0.1</text></g></g><g class="yaxislayer-above"><g class="ytick"><text text-anchor="end" x="120" y="4.55" transform="translate(0,723.75)" style="font-family: 'Suisse Intl', -apple-system, BlinkMacSystemFont, Arial, sans-serif; font-size: 13px; fill: rgb(29, 39, 42); fill-opacity: 1; white-space: pre; opacity: 1;">Trains</text></g><g class="ytick"><text text-anchor="end" x="120" y="4.55" transform="translate(0,701.59)" style="font-family: 'Suisse Intl', -apple-system, BlinkMacSystemFont, Arial, sans-serif; font-size: 13px; fill: rgb(29, 39, 42); fill-opacity: 1; white-space: pre; opacity: 1;">Butter</text></g><g class="ytick"><text text-anchor="end" x="120" y="4.55" transform="translate(0,679.44)" style="font-family: 'Suisse Intl', -apple-system, BlinkMacSystemFont, Arial, sans-serif; font-size: 13px; fill: rgb(29, 39, 42); fill-opacity: 1; white-space: pre; opacity: 1;">Thunder</text></g><g class="ytick"><text text-anchor="end" x="120" y="4.55" transform="translate(0,657.28)" style="font-family: 'Suisse Intl', -apple-system, BlinkMacSystemFont, Arial, sans-serif; font-size: 13px; fill: rgb(29, 39, 42); fill-opacity: 1; white-space: pre; opacity: 1;">Camels</text></g><g class="ytick"><text text-anchor="end" x="120" y="4.55" transform="translate(0,635.13)" style="font-family: 'Suisse Intl', -apple-system, BlinkMacSystemFont, Arial, sans-serif; font-size: 13px; fill: rgb(29, 39, 42); fill-opacity: 1; white-space: pre; opacity: 1;">Boots</text></g><g class="ytick"><text text-anchor="end" x="120" y="4.55" transform="translate(0,612.97)" style="font-family: 'Suisse Intl', -apple-system, BlinkMacSystemFont, Arial, sans-serif; font-size: 13px; fill: rgb(29, 39, 42); fill-opacity: 1; white-space: pre; opacity: 1;">Olives</text></g><g class="ytick"><text text-anchor="end" x="120" y="4.55" transform="translate(0,590.82)" style="font-family: 'Suisse Intl', -apple-system, BlinkMacSystemFont, Arial, sans-serif; font-size: 13px; fill: rgb(29, 39, 42); fill-opacity: 1; white-space: pre; opacity: 1;">Bread</text></g><g class="ytick"><text text-anchor="end" x="120" y="4.55" transform="translate(0,568.66)" style="font-family: 'Suisse Intl', -apple-system, BlinkMacSystemFont, Arial, sans-serif; font-size: 13px; fill: rgb(29, 39, 42); fill-opacity: 1; white-space: pre; opacity: 1;">Islands</text></g><g class="ytick"><text text-anchor="end" x="120" y="4.55" transform="translate(0,546.51)" style="font-family: 'Suisse Intl', -apple-system, BlinkMacSystemFont, Arial, sans-serif; font-size: 13px; fill: rgb(29, 39, 42); fill-opacity: 1; white-space: pre; opacity: 1;">Pepper</text></g><g class="ytick"><text text-anchor="end" x="120" y="4.55" transform="translate(0,524.35)" style="font-family: 'Suisse Intl', -apple-system, BlinkMacSystemFont, Arial, sans-serif; font-size: 13px; fill: rgb(29, 39, 42); fill-opacity: 1; white-space: pre; opacity: 1;">Paintings</text></g><g class="ytick"><text text-anchor="end" x="120" y="4.55" transform="translate(0,502.2)" style="font-family: 'Suisse Intl', -apple-system, BlinkMacSystemFont, Arial, sans-serif; font-size: 13px; fill: rgb(29, 39, 42); fill-opacity: 1; white-space: pre; opacity: 1;">Milk</text></g><g class="ytick"><text text-anchor="end" x="120" y="4.55" transform="translate(0,480.04)" style="font-family: 'Suisse Intl', -apple-system, BlinkMacSystemFont, Arial, sans-serif; font-size: 13px; fill: rgb(29, 39, 42); fill-opacity: 1; white-space: pre; opacity: 1;">Vegetables</text></g><g class="ytick"><text text-anchor="end" x="120" y="4.55" transform="translate(0,457.89)" style="font-family: 'Suisse Intl', -apple-system, BlinkMacSystemFont, Arial, sans-serif; font-size: 13px; fill: rgb(29, 39, 42); fill-opacity: 1; white-space: pre; opacity: 1;">Dynasties</text></g><g class="ytick"><text text-anchor="end" x="120" y="4.55" transform="translate(0,435.73)" style="font-family: 'Suisse Intl', -apple-system, BlinkMacSystemFont, Arial, sans-serif; font-size: 13px; fill: rgb(29, 39, 42); fill-opacity: 1; white-space: pre; opacity: 1;">Chocolate</text></g><g class="ytick"><text text-anchor="end" x="120" y="4.55" transform="translate(0,413.58)" style="font-family: 'Suisse Intl', -apple-system, BlinkMacSystemFont, Arial, sans-serif; font-size: 13px; fill: rgb(29, 39, 42); fill-opacity: 1; white-space: pre; opacity: 1;">Horses</text></g><g class="ytick"><text text-anchor="end" x="120" y="4.55" transform="translate(0,391.42)" style="font-family: 'Suisse Intl', -apple-system, BlinkMacSystemFont, Arial, sans-serif; font-size: 13px; fill: rgb(29, 39, 42); fill-opacity: 1; white-space: pre; opacity: 1;">Photographs</text></g><g class="ytick"><text text-anchor="end" x="120" y="4.55" transform="translate(0,369.27)" style="font-family: 'Suisse Intl', -apple-system, BlinkMacSystemFont, Arial, sans-serif; font-size: 13px; fill: rgb(29, 39, 42); fill-opacity: 1; white-space: pre; opacity: 1;">Lightning</text></g><g class="ytick"><text text-anchor="end" x="120" y="4.55" transform="translate(0,347.11)" style="font-family: 'Suisse Intl', -apple-system, BlinkMacSystemFont, Arial, sans-serif; font-size: 13px; fill: rgb(29, 39, 42); fill-opacity: 1; white-space: pre; opacity: 1;">Plates</text></g><g class="ytick"><text text-anchor="end" x="120" y="4.55" transform="translate(0,324.96)" style="font-family: 'Suisse Intl', -apple-system, BlinkMacSystemFont, Arial, sans-serif; font-size: 13px; fill: rgb(29, 39, 42); fill-opacity: 1; white-space: pre; opacity: 1;">Denim</text></g><g class="ytick"><text text-anchor="end" x="120" y="4.55" transform="translate(0,302.8)" style="font-family: 'Suisse Intl', -apple-system, BlinkMacSystemFont, Arial, sans-serif; font-size: 13px; fill: rgb(29, 39, 42); fill-opacity: 1; white-space: pre; opacity: 1;">Trees</text></g><g class="ytick"><text text-anchor="end" x="120" y="4.55" transform="translate(0,280.65)" style="font-family: 'Suisse Intl', -apple-system, BlinkMacSystemFont, Arial, sans-serif; font-size: 13px; fill: rgb(29, 39, 42); fill-opacity: 1; white-space: pre; opacity: 1;">Reefs</text></g><g class="ytick"><text text-anchor="end" x="120" y="4.55" transform="translate(0,258.49)" style="font-family: 'Suisse Intl', -apple-system, BlinkMacSystemFont, Arial, sans-serif; font-size: 13px; fill: rgb(29, 39, 42); fill-opacity: 1; white-space: pre; opacity: 1;">Envelopes</text></g><g class="ytick"><text text-anchor="end" x="120" y="4.55" transform="translate(0,236.34)" style="font-family: 'Suisse Intl', -apple-system, BlinkMacSystemFont, Arial, sans-serif; font-size: 13px; fill: rgb(29, 39, 42); fill-opacity: 1; white-space: pre; opacity: 1;">Dams</text></g><g class="ytick"><text text-anchor="end" x="120" y="4.55" transform="translate(0,214.18)" style="font-family: 'Suisse Intl', -apple-system, BlinkMacSystemFont, Arial, sans-serif; font-size: 13px; fill: rgb(29, 39, 42); fill-opacity: 1; white-space: pre; opacity: 1;">Volcanoes</text></g><g class="ytick"><text text-anchor="end" x="120" y="4.55" transform="translate(0,192.03)" style="font-family: 'Suisse Intl', -apple-system, BlinkMacSystemFont, Arial, sans-serif; font-size: 13px; fill: rgb(29, 39, 42); fill-opacity: 1; white-space: pre; opacity: 1;">Windows</text></g><g class="ytick"><text text-anchor="end" x="120" y="4.55" transform="translate(0,169.87)" style="font-family: 'Suisse Intl', -apple-system, BlinkMacSystemFont, Arial, sans-serif; font-size: 13px; fill: rgb(29, 39, 42); fill-opacity: 1; white-space: pre; opacity: 1;">Canoes</text></g><g class="ytick"><text text-anchor="end" x="120" y="4.55" transform="translate(0,147.72)" style="font-family: 'Suisse Intl', -apple-system, BlinkMacSystemFont, Arial, sans-serif; font-size: 13px; fill: rgb(29, 39, 42); fill-opacity: 1; white-space: pre; opacity: 1;">Harbors</text></g><g class="ytick"><text text-anchor="end" x="120" y="4.55" transform="translate(0,125.56)" style="font-family: 'Suisse Intl', -apple-system, BlinkMacSystemFont, Arial, sans-serif; font-size: 13px; fill: rgb(29, 39, 42); fill-opacity: 1; white-space: pre; opacity: 1;">Deserts</text></g><g class="ytick"><text text-anchor="end" x="120" y="4.55" transform="translate(0,103.41)" style="font-family: 'Suisse Intl', -apple-system, BlinkMacSystemFont, Arial, sans-serif; font-size: 13px; fill: rgb(29, 39, 42); fill-opacity: 1; white-space: pre; opacity: 1;">Cameras</text></g><g class="ytick"><text text-anchor="end" x="120" y="4.55" transform="translate(0,81.25)" style="font-family: 'Suisse Intl', -apple-system, BlinkMacSystemFont, Arial, sans-serif; font-size: 13px; fill: rgb(29, 39, 42); fill-opacity: 1; white-space: pre; opacity: 1;">Turbines</text></g></g><g class="overaxes-above"/></g></g><g class="polarlayer"/><g class="smithlayer"/><g class="ternarylayer"/><g class="geolayer"/><g class="funnelarealayer"/><g class="pielayer"/><g class="iciclelayer"/><g class="treemaplayer"/><g class="sunburstlayer"/><g class="glimages"/><defs id="topdefs-633fea"><g class="clips"/><clipPath id="legend633fea"><rect width="358" height="30" x="0" y="0"/></clipPath></defs><g class="layer-above"><g class="imagelayer"/><g class="shapelayer"><g class="shape-group" data-index="0" clip-path="url(#clip633feax)"><path data-index="0" fill-rule="evenodd" d="M441.03,765L441.03,40" style="opacity: 1; stroke: rgb(49, 54, 46); stroke-opacity: 1; fill: rgb(0, 0, 0); fill-opacity: 0; stroke-dasharray: 3px, 3px; stroke-width: 1px;"/></g></g></g><g class="infolayer"><g class="legend" pointer-events="all" transform="translate(0,820)"><rect class="bg" shape-rendering="crispEdges" style="stroke: rgb(68, 68, 68); stroke-opacity: 1; fill: rgb(0, 0, 0); fill-opacity: 0; stroke-width: 0px;" width="358" height="30" x="0" y="0"/><g class="scrollbox" transform="" clip-path="url(#legend633fea)"><g class="groups"><g class="traces" transform="translate(0,14.950000000000001)" style="opacity: 1;"><text class="legendtext" text-anchor="start" x="40" y="5.07" style="font-family: 'Suisse Intl', -apple-system, BlinkMacSystemFont, Arial, sans-serif; font-size: 13px; fill: rgb(29, 39, 42); fill-opacity: 1; white-space: pre;">below zero</text><g class="layers" style="opacity: 1;"><g class="legendfill"/><g class="legendlines"/><g class="legendsymbols"><g class="legendpoints"><path class="scatterpts" transform="translate(20,0)" d="M4,0A4,4 0 1,1 0,-4A4,4 0 0,1 4,0Z" style="opacity: 1; stroke-width: 0px; fill: rgb(185, 96, 91); fill-opacity: 1;"/></g></g></g><rect class="legendtoggle" x="0" y="-9.950000000000001" width="112.96875" height="19.900000000000002" style="fill: rgb(0, 0, 0); fill-opacity: 0;"/></g><g class="traces" transform="translate(115.46875,14.950000000000001)" style="opacity: 1;"><text class="legendtext" text-anchor="start" x="40" y="5.07" style="font-family: 'Suisse Intl', -apple-system, BlinkMacSystemFont, Arial, sans-serif; font-size: 13px; fill: rgb(29, 39, 42); fill-opacity: 1; white-space: pre;">above zero</text><g class="layers" style="opacity: 1;"><g class="legendfill"/><g class="legendlines"/><g class="legendsymbols"><g class="legendpoints"><path class="scatterpts" transform="translate(20,0)" d="M4,0A4,4 0 1,1 0,-4A4,4 0 0,1 4,0Z" style="opacity: 1; stroke-width: 0px; fill: rgb(46, 110, 78); fill-opacity: 1;"/></g></g></g><rect class="legendtoggle" x="0" y="-9.950000000000001" width="114.390625" height="19.900000000000002" style="fill: rgb(0, 0, 0); fill-opacity: 0;"/></g><g class="traces" transform="translate(232.359375,14.950000000000001)" style="opacity: 1;"><text class="legendtext" text-anchor="start" x="40" y="5.07" style="font-family: 'Suisse Intl', -apple-system, BlinkMacSystemFont, Arial, sans-serif; font-size: 13px; fill: rgb(29, 39, 42); fill-opacity: 1; white-space: pre;">crosses zero</text><g class="layers" style="opacity: 1;"><g class="legendfill"/><g class="legendlines"/><g class="legendsymbols"><g class="legendpoints"><path class="scatterpts" transform="translate(20,0)" d="M4,0A4,4 0 1,1 0,-4A4,4 0 0,1 4,0Z" style="opacity: 1; stroke-width: 0px; fill: rgb(152, 132, 83); fill-opacity: 1;"/></g></g></g><rect class="legendtoggle" x="0" y="-9.950000000000001" width="123" height="19.900000000000002" style="fill: rgb(0, 0, 0); fill-opacity: 0;"/></g></g></g><rect class="scrollbar" rx="20" ry="3" width="0" height="0" style="fill: rgb(128, 139, 164); fill-opacity: 1;" x="0" y="0"/></g><g class="g-gtitle"/><g class="g-xtitle"><text class="xtitle" x="398.5" y="807.7" text-anchor="middle" style="opacity: 1; font-family: 'Suisse Intl', -apple-system, BlinkMacSystemFont, Arial, sans-serif; font-size: 16px; fill: rgb(29, 39, 42); fill-opacity: 1; white-space: pre;">Gap d′ slope per difficulty unit</text></g><g class="g-ytitle"><text class="ytitle" transform="rotate(-90,17.978125000000006,402.5)" x="17.978125000000006" y="402.5" text-anchor="middle" style="opacity: 1; font-family: 'Suisse Intl', -apple-system, BlinkMacSystemFont, Arial, sans-serif; font-size: 16px; fill: rgb(29, 39, 42); fill-opacity: 1; white-space: pre;">Concept</text></g></g></svg>